<svg width="388" height="209" viewBox="0 0 388 209" fill="none" xmlns="http://www.w3.org/2000/svg">
<path d="M194.641 68.3138L183.847 86.8232H138.359C136.046 87.5944 136.046 90.6793 136.046 91.4505C136.046 96.3863 138.616 97.1061 139.901 96.8491H175.366C193.87 96.8491 197.468 111.245 196.954 118.443C195.721 136.336 183.59 139.78 177.679 139.266H116L126.794 121.528H170.74C176.908 122.145 178.45 118.7 178.45 116.901C178.45 111.965 174.852 110.731 173.053 110.731H134.504C118.467 110.114 116.514 96.592 117.542 89.9081C120.626 73.2497 133.733 68.5709 139.901 68.3138H194.641Z" fill="white"/>
<path d="M218.853 68.3138L206.539 86.0638H259.643C267.031 86.0638 268.365 92.2378 268.109 95.3247C266.878 100.881 261.439 102.27 258.873 102.27H205V139.314H225.78V120.792H258.873C285.348 119.557 288.376 100.212 286.58 90.6943C284.117 73.4073 269.648 68.5711 262.722 68.3138H218.853Z" fill="white"/>
<path d="M295 68.3138V72.9696V111.961V139.314H354.57L363 122.437H313.879V68.3138H295Z" fill="white"/>
<path d="M34.6772 111.583C36.2901 120.268 44.5033 138.232 64.453 140.614" stroke="white" stroke-width="1.81418"/>
<path d="M27.2332 99.3676C29.3423 87.1949 40.5578 62.7736 68.5471 62.4692C68.5471 62.4692 102.045 62.4692 106.883 87.018H93.1121C86.4125 76.9687 77.4798 74.3633 68.5471 75.1077C61.4952 75.6953 47.5551 79.5109 42.4932 95.944C39.6397 105.834 39.8134 127.289 63.3363 133.984C71.6487 135.378 87.7524 138.571 94.6009 119.399H106.883C106.883 130.414 94.973 148.803 67.4304 147.314C50.3093 146.389 27.2332 131.31 27.2332 105.074H33.1883C33.4364 94.9297 39.8134 73.4247 63.3363 68.5556" stroke="white" stroke-width="2.72127"/>
<path d="M63.8093 76.6131C65.5604 76.2568 67.1301 76.1489 68.3869 76.2243V61.3364C94.9731 60.592 107.256 78.4575 107.256 86.6458H92.3677C87.9014 78.4575 74.5902 75.4799 68.3869 76.2243C66.7785 76.2243 65.2534 76.3609 63.8093 76.6131C56.9181 78.0154 47.2164 83.2644 42.7053 96.3229C41.266 102.277 41.154 107.381 41.9753 111.736C42.71 115.407 44.1821 119.126 46.7195 122.492C48.369 124.654 50.3059 126.474 52.38 127.99C56.3217 130.827 61.5451 133.063 68.3869 134.287C75.0865 134.039 87.3058 133.171 93.8565 118.283H108C106.635 128.332 98.6951 145.825 68.3869 147.686V134.287C63.8123 133.734 57.6529 131.845 52.38 127.99C50.0787 126.335 48.2143 124.475 46.7195 122.492C44.4872 119.565 42.7815 116.012 41.9753 111.736C40.819 105.959 41.4886 100.301 42.7053 96.3229C44.3801 90.5169 50.818 78.8827 63.8093 76.6131Z" fill="white"/>
<circle cx="27.2332" cy="99.6725" r="2.23318" fill="white"/>
<circle cx="34.677" cy="112.327" r="2.23318" fill="white"/>
<circle cx="63.7085" cy="68.4082" r="2.23318" fill="white"/>
<circle cx="64.4529" cy="140.615" r="2.23318" fill="white"/>
<path d="M77.8535 84.8091L62.958 80.4928M77.8535 84.8091L59.8972 97.4813M77.8535 84.8091L61.1895 100.193M77.8535 84.8091L62.1418 86.4692M62.958 80.4928C60.4187 81.9316 54.5647 84.9198 54.1838 84.9198M62.958 80.4928L62.1418 86.4692M59.8972 97.4813L62.1418 86.4692M59.8972 97.4813L55.1361 87.0226M59.8972 97.4813L55.9523 100.414M59.8972 97.4813L61.1895 100.193M54.1838 84.9198L55.1361 87.0226M54.1838 84.9198L48.7425 94.0504M62.1418 86.4692L55.1361 87.0226M55.1361 87.0226L48.7425 94.0504M48.7425 94.0504L55.9523 100.414M48.7425 94.0504L46.2939 107.829M48.7425 94.0504L52.4154 103.292M55.9523 100.414L59.3531 103.292M55.9523 100.414L52.4154 103.292M46.2939 107.829L49.6267 105.267M46.2939 107.829L54.932 110.541M46.2939 107.829L48.2664 114.138L52.1434 120.28M46.2939 107.829L52.4154 115.134L52.1434 120.28M52.4154 103.292L54.932 110.541M52.4154 103.292L49.6267 105.267M54.932 110.541L59.3531 103.292M54.932 110.541L49.6267 105.267M54.932 110.541L60.8495 118.011V124.652M54.932 110.541V115.466L52.1434 120.28M54.932 110.541L63.7742 118.233L67.5151 123.877M54.932 110.541L60.6454 111.703M54.932 110.541L63.5021 107.829L64.4543 107.497M59.3531 103.292C59.3531 103.115 60.5774 101.078 61.1895 100.193M59.3531 103.292L64.4543 107.497M61.1895 100.193L64.4543 107.497M64.4543 107.497L60.6454 111.703M64.4543 107.497L66.6989 113.916L82.0706 121.166M52.1434 120.28L60.8495 124.652M52.1434 120.28L60.9855 127.197M60.8495 124.652L60.9855 127.197M60.8495 124.652L67.5151 123.877M60.9855 127.197L70.7118 128.858L67.5151 123.877M67.5151 123.877L82.0706 121.166M70.7798 128.913L82.0706 121.166M82.0706 121.166L65.5426 115.798L60.6454 111.703" stroke="white" stroke-width="0.269728"/>
<ellipse cx="63.0942" cy="80.4375" rx="0.884213" ry="0.719384" fill="white"/>
<ellipse cx="54.2519" cy="84.8644" rx="0.884213" ry="0.719384" fill="white"/>
<ellipse cx="55.3403" cy="87.5206" rx="0.884213" ry="0.719384" fill="white"/>
<ellipse cx="62.1418" cy="86.4137" rx="0.884213" ry="0.719384" fill="white"/>
<ellipse cx="77.7856" cy="84.8644" rx="0.884213" ry="0.719384" fill="white"/>
<ellipse cx="48.6747" cy="94.1611" rx="0.884213" ry="0.719384" fill="white"/>
<ellipse cx="60.1013" cy="97.2602" rx="0.884213" ry="0.719384" fill="white"/>
<ellipse cx="61.4616" cy="100.248" rx="0.884213" ry="0.719384" fill="white"/>
<ellipse cx="55.8845" cy="100.248" rx="0.884213" ry="0.719384" fill="white"/>
<ellipse cx="59.2851" cy="103.236" rx="0.884213" ry="0.719384" fill="white"/>
<ellipse cx="49.6269" cy="105.45" rx="0.884213" ry="0.719384" fill="white"/>
<ellipse cx="46.226" cy="107.774" rx="0.884213" ry="0.719384" fill="white"/>
<ellipse cx="54.9321" cy="110.762" rx="0.884213" ry="0.719384" fill="white"/>
<ellipse cx="60.6454" cy="111.537" rx="0.884213" ry="0.719384" fill="white"/>
<ellipse cx="64.1823" cy="107.442" rx="0.884213" ry="0.719384" fill="white"/>
<ellipse cx="66.767" cy="113.972" rx="0.884213" ry="0.719384" fill="white"/>
<ellipse cx="65.5427" cy="115.853" rx="0.884213" ry="0.719384" fill="white"/>
<ellipse cx="63.7743" cy="118.288" rx="0.884213" ry="0.719384" fill="white"/>
<ellipse cx="60.6454" cy="118.067" rx="0.884213" ry="0.719384" fill="white"/>
<ellipse cx="54.5241" cy="115.964" rx="0.884213" ry="0.719384" fill="white"/>
<ellipse cx="52.2114" cy="115.189" rx="0.884213" ry="0.719384" fill="white"/>
<ellipse cx="48.2665" cy="114.193" rx="0.884213" ry="0.719384" fill="white"/>
<ellipse cx="52.2114" cy="120.502" rx="0.884213" ry="0.719384" fill="white"/>
<ellipse cx="60.9174" cy="124.597" rx="0.884213" ry="0.719384" fill="white"/>
<ellipse cx="60.9174" cy="127.253" rx="0.884213" ry="0.719384" fill="white"/>
<ellipse cx="67.5832" cy="123.932" rx="0.884213" ry="0.719384" fill="white"/>
<ellipse cx="70.7119" cy="128.913" rx="0.884213" ry="0.719384" fill="white"/>
<ellipse cx="82.0026" cy="121.166" rx="0.884213" ry="0.719384" fill="white"/>
</svg>
